<svg width="57" height="57" viewBox="0 0 57 57" fill="none" xmlns="http://www.w3.org/2000/svg">
    <path  d="M0 0h57v57H0z"/>
    <g clip-path="url(#a)">
        <path d="M49.142 15.753 28.595 3.847a.961.961 0 0 0-.964 0L7.084 15.753a.966.966 0 0 0-.476.839v23.815a.97.97 0 0 0 .476.838l20.547 11.909a.96.96 0 0 0 .964 0l20.547-11.907a.966.966 0 0 0 .477-.839V16.592a.97.97 0 0 0-.477-.839zm-21.034-9.95 18.624 10.789-18.624 10.79-18.613-10.79 18.613-10.79zM8.53 18.267l18.624 10.793v21.577L8.531 39.848v-21.58zm20.547 32.37V29.061l18.618-10.793v21.58l-18.618 10.79z" fill="#0B1725"/>
        <path d="m16.201 39.454-4.402-2.55a.962.962 0 0 0-1.438.712.97.97 0 0 0 .474.964l4.402 2.55a.963.963 0 0 0 1.414-1.089.97.97 0 0 0-.45-.587zM10.835 34.222l2.422 1.403a.963.963 0 0 0 1.414-1.09.97.97 0 0 0-.45-.587l-2.422-1.403a.961.961 0 0 0-1.317.355.971.971 0 0 0 .353 1.322z" fill="#0B1725"/>
        <path fill-rule="evenodd" clip-rule="evenodd" d="M34.438 24.834v8.623l4.138-5.034 3.297.726v-8.623L20.36 8.059l-7.435 4.304 2.549 1.478 18.964 10.993z" fill="#29B6AB"/>
    </g>
    <defs>
        <clipPath id="a">
            <path transform="translate(6.196 3.717)" d="M0 0h43.37v49.565H0z"/>
        </clipPath>
    </defs>
</svg>
