<svg width="57" height="57" viewBox="0 0 57 57" fill="none" xmlns="http://www.w3.org/2000/svg">
    <path d="M0 0h57v57H0z"/>
    <g clip-path="url(#a)">
        <path d="M39.29 35.96v-7.278h2.871v-6.771h-28.82v20.376h28.82v-6.32l-2.87-.006z" fill="#29B6AB" fill-opacity=".45"/>
        <path d="M49.144 27.48h-.424V9.204c0-.319-.126-.624-.35-.85a1.188 1.188 0 0 0-.843-.352h-1.551l-34.834.023a4.833 4.833 0 0 0-3.066 1.538 4.906 4.906 0 0 0-1.292 3.196v31.273a4.88 4.88 0 0 0 1.412 3.438 4.803 4.803 0 0 0 3.41 1.423h35.921c.316 0 .62-.126.843-.352.224-.225.35-.531.35-.85V37.158h.424c.317 0 .62-.127.844-.352.224-.226.35-.532.35-.85v-7.273c0-.319-.127-.624-.35-.85a1.188 1.188 0 0 0-.844-.352zm-1.192 2.405v4.875h-7.468v-4.874h7.468zM11.605 10.404h34.724v4.902H11.605a2.428 2.428 0 0 1-1.72-.719 2.466 2.466 0 0 1-.716-1.733v-.049c.017-.64.28-1.25.735-1.697a2.435 2.435 0 0 1 1.7-.702v-.002zm34.724 36.08H11.605a2.427 2.427 0 0 1-1.722-.718 2.466 2.466 0 0 1-.715-1.735V17.046c.738.437 1.579.667 2.435.666h34.725v9.767H39.29c-.316 0-.62.127-.843.352-.224.226-.35.532-.35.85v7.28a1.212 1.212 0 0 0 .35.851 1.191 1.191 0 0 0 .843.352h7.043l-.005 9.32z" fill="#0B1725"/>
    </g>
    <defs>
        <clipPath id="a">
            <path transform="translate(7 8)" d="M0 0h43.37v40.891H0z"/>
        </clipPath>
    </defs>
</svg>
