<svg width="96" height="96" viewBox="0 0 96 96" fill="none" xmlns="http://www.w3.org/2000/svg">
<g clip-path="url(#clip0_10_856)">
<circle cx="47.9998" cy="51.8402" r="44.16" fill="#E3F4F3"/>
<path d="M66.9408 37.387L70.5936 35.0216L66.4797 32.4946C66.4797 32.4946 63.3479 34.8001 64.6054 36.363L66.9408 37.387Z" fill="#EEC1BB"/>
<path d="M72.4677 31.1351L68.1921 30.165L66.4795 32.4944L70.5934 35.0214L72.4677 31.1351Z" fill="#EEC1BB"/>
<path d="M51.9285 29.71C54.2399 33.2071 56.5573 37.4587 59.7131 40.1833C59.773 40.2312 59.749 40.1833 59.5155 40.1833C59.3957 40.2132 59.4556 40.2731 59.7011 40.1833C60.4198 39.7737 61.0522 39.2287 61.5635 38.5784C62.7345 37.1591 63.7766 35.638 64.6773 34.0334C64.7192 33.9675 64.6773 34.0334 64.6773 34.1053C64.6621 34.2145 64.6621 34.3254 64.6773 34.4346C64.7312 34.4885 64.5396 34.3328 64.9108 35.1532C65.0859 35.415 65.3347 35.6189 65.6256 35.7394C65.9166 35.8598 66.2368 35.8913 66.5456 35.8299C66.7433 35.7872 66.9301 35.704 67.0939 35.5855C67.2578 35.4669 67.3953 35.3157 67.4977 35.1412C67.4041 35.2517 67.32 35.3699 67.2462 35.4945L64.5635 34.3508C64.6285 33.9699 64.7846 33.6103 65.0186 33.3029C65.2354 33.059 65.5217 32.8876 65.839 32.8118C66.1502 32.7509 66.4725 32.7832 66.7654 32.9046C67.0584 33.026 67.3089 33.2312 67.4858 33.4945C67.857 34.3209 67.6714 34.1652 67.7253 34.225C67.732 34.4162 67.7139 34.6074 67.6714 34.7939C66.7312 38.788 64.2761 45.369 59.1862 45.405C55.5933 45.0756 52.8686 41.1294 50.8506 38.6383C49.4184 36.7205 48.0988 34.721 46.8984 32.6502L51.8986 29.7159L51.9285 29.71Z" fill="#EEC1BB"/>
<path d="M50.0841 27.0815C52.4793 27.872 57.3357 38.9082 57.3357 38.9082L49.084 42.8244C49.084 42.8244 47.4074 34.1536 47.7367 31.3571C47.9432 29.684 48.7833 28.1539 50.0841 27.0815Z" fill="#46B8B0"/>
<path opacity="0.7" d="M50.0841 27.0815C52.4793 27.872 57.3357 38.9082 57.3357 38.9082L49.084 42.8244C49.084 42.8244 47.4074 34.1536 47.7367 31.3571C47.9432 29.684 48.7833 28.1539 50.0841 27.0815Z" fill="white"/>
<path d="M26.676 60.1006C24.3766 70.0529 28.3168 148.36 28.3168 148.36H35.9337L39.1913 83.0892L51.1676 148.36L59.3115 147.761C53.988 97.2093 49.2873 67.0289 49.2873 67.0289V63.2144L26.676 60.1006Z" fill="#263238"/>
<path opacity="0.2" d="M59.3237 147.749L51.1798 148.348L41.7484 96.9697L39.1975 83.0832L35.9399 148.354H28.323C28.323 148.354 24.3828 70.035 26.6762 60.1006L49.3115 63.2204V67.0349C49.3115 67.0349 54.0002 97.2272 59.3237 147.749Z" fill="white"/>
<path d="M26.1792 26.4409C26.9769 31.1398 27.4232 35.8916 27.5146 40.6568C27.5924 43.9802 27.5146 47.142 27.4008 50.0043C27.1014 56.7171 26.4547 61.795 26.4846 63.5376L49.3354 63.9448C54.7847 40.052 50.1019 27.0816 50.1019 27.0816C48.3304 26.5898 46.5306 26.2058 44.7126 25.9319C44.3134 25.88 43.9142 25.8321 43.5149 25.7882C40.2834 25.5424 37.0405 25.4824 33.8021 25.6085C33.2033 25.6085 32.5626 25.6624 31.9578 25.7103C28.9038 25.9678 26.1792 26.4409 26.1792 26.4409Z" fill="#46B8B0"/>
<path d="M44.2575 26.566C44.2575 26.566 42.8982 28.5362 41.8084 28.6739C40.2634 28.8835 34.6226 25.4283 34.6226 25.4283C35.928 24.4642 36.5687 22.3624 36.8502 20.1407C37.0515 18.3374 37.0896 16.5196 36.9639 14.7095L42.2395 20.4461C41.5449 22.2426 41.1317 24.1588 42.497 25.5061C42.9988 25.9845 43.5999 26.3464 44.2575 26.566Z" fill="#EEC1BB"/>
<path opacity="0.2" d="M42.4847 25.4886C40.1608 24.2206 38.2129 22.3615 36.8379 20.0992C37.0392 18.2959 37.0773 16.4781 36.9517 14.668L42.2272 20.4046C41.5326 22.219 41.1494 24.1712 42.4847 25.4886Z" fill="black"/>
<path d="M48.3356 9.53598C48.7847 11.1947 48.3356 14.5601 46.108 13.3624C43.8804 12.1648 47.587 6.67364 48.3356 9.53598Z" fill="#263238"/>
<path d="M36.431 11.2426C35.9939 15.4343 35.5268 17.8895 37.2814 20.3626C39.9281 24.0753 45.4073 22.9674 47.09 18.9614C48.611 15.3685 49.0661 9.08089 45.2516 6.78143C44.4052 6.27279 43.4437 5.98712 42.4569 5.95114C41.4701 5.91517 40.4903 6.13007 39.6091 6.57573C38.728 7.0214 37.9742 7.68327 37.4184 8.49945C36.8626 9.31563 36.5229 10.2594 36.431 11.2426Z" fill="#EEC1BB"/>
<path d="M39.4851 9.07539L39.6947 4.3627C39.6947 4.3627 34.6886 3.76389 34.8024 6.35078C31.964 7.60829 33.0898 11.9856 36.7306 14.2671C38.8504 12.7222 38.7845 8.76401 38.7845 8.76401C39.0001 8.8718 39.2396 8.97359 39.4851 9.07539Z" fill="#263238"/>
<path d="M34.2455 14.4467C34.3222 14.9668 34.5015 15.4664 34.7728 15.9167C35.0442 16.3669 35.4023 16.7588 35.8263 17.0695C36.9641 17.8959 38.036 16.9857 38.1318 15.6563C38.2216 14.4587 37.7366 12.5844 36.3952 12.285C36.0993 12.2267 35.7936 12.2424 35.5053 12.3307C35.2169 12.4189 34.9547 12.577 34.7421 12.7908C34.5294 13.0046 34.3728 13.2676 34.2862 13.5565C34.1996 13.8454 34.1856 14.1511 34.2455 14.4467Z" fill="#EEC1BB"/>
<path d="M42.5809 13.3923C42.521 13.7336 42.6588 14.033 42.8803 14.069C43.1019 14.1049 43.3294 13.8594 43.3833 13.518C43.4372 13.1767 43.3055 12.8773 43.0839 12.8414C42.8624 12.8055 42.6348 13.051 42.5809 13.3923Z" fill="#263238"/>
<path d="M46.4253 13.9913C46.3714 14.3327 46.5091 14.6381 46.7307 14.668C46.9522 14.6979 47.1798 14.4584 47.2337 14.1171C47.2876 13.7758 47.1558 13.4764 46.9343 13.4404C46.7127 13.4045 46.4851 13.656 46.4253 13.9913Z" fill="#263238"/>
<path d="M45.1736 13.9912C45.4309 15.0593 45.8339 16.0869 46.3713 17.0452C46.1092 17.1617 45.8257 17.222 45.5389 17.222C45.2521 17.222 44.9686 17.1617 44.7065 17.0452L45.1736 13.9912Z" fill="#D4827D"/>
<path d="M42.6646 18.0637C42.8075 18.1088 42.9536 18.1428 43.1017 18.1655C43.1279 18.169 43.1543 18.1622 43.1755 18.1466C43.1968 18.1309 43.2111 18.1077 43.2155 18.0817C43.2181 18.0683 43.2179 18.0545 43.2151 18.0412C43.2123 18.0279 43.2068 18.0152 43.1989 18.0041C43.1911 17.9929 43.1811 17.9834 43.1696 17.9762C43.158 17.9689 43.1451 17.9641 43.1317 17.9619C42.709 17.9053 42.3055 17.7501 41.9539 17.5088C41.6023 17.2674 41.3124 16.9467 41.1077 16.5727C41.1031 16.56 41.096 16.5485 41.0867 16.5388C41.0774 16.5291 41.0662 16.5215 41.0538 16.5164C41.0414 16.5113 41.028 16.5089 41.0146 16.5093C41.0012 16.5097 40.988 16.5129 40.9759 16.5188C40.9515 16.5293 40.9322 16.549 40.9221 16.5737C40.9121 16.5983 40.912 16.6259 40.922 16.6505C41.1004 16.9928 41.347 17.2948 41.6467 17.5378C41.9465 17.7809 42.2929 17.9599 42.6646 18.0637Z" fill="#263238"/>
<path d="M41.5987 11.9671C41.6328 11.9785 41.6694 11.98 41.7043 11.9716C41.7393 11.9631 41.7711 11.945 41.7963 11.9192C41.977 11.7389 42.197 11.6029 42.439 11.5219C42.6811 11.4408 42.9387 11.417 43.1915 11.4522C43.2171 11.4581 43.2435 11.4589 43.2694 11.4545C43.2953 11.4502 43.32 11.4408 43.3423 11.4269C43.3645 11.413 43.3838 11.3949 43.399 11.3735C43.4143 11.3522 43.4251 11.328 43.431 11.3025C43.4369 11.2769 43.4377 11.2504 43.4334 11.2246C43.4291 11.1987 43.4197 11.1739 43.4058 11.1517C43.3919 11.1294 43.3737 11.1102 43.3524 11.0949C43.331 11.0797 43.3069 11.0688 43.2813 11.0629C42.9638 11.009 42.6379 11.0325 42.3313 11.1316C42.0248 11.2306 41.7468 11.4022 41.5208 11.6318C41.4828 11.67 41.4614 11.7216 41.4614 11.7755C41.4614 11.8294 41.4828 11.8811 41.5208 11.9192C41.5431 11.9404 41.5697 11.9568 41.5987 11.9671Z" fill="#263238"/>
<path d="M48.3352 12.9316C48.3721 12.9436 48.4119 12.9436 48.4489 12.9316C48.5004 12.9164 48.5438 12.8814 48.5696 12.8343C48.5954 12.7871 48.6015 12.7318 48.5867 12.6801C48.5024 12.3712 48.3446 12.0872 48.1266 11.8526C47.9086 11.6179 47.6371 11.4396 47.3351 11.3328C47.2836 11.3195 47.2289 11.3264 47.1821 11.3519C47.1354 11.3775 47.1002 11.4199 47.0836 11.4705C47.0688 11.5221 47.0749 11.5775 47.1007 11.6247C47.1265 11.6718 47.1699 11.7068 47.2214 11.722C47.4608 11.8064 47.6755 11.9491 47.8459 12.1373C48.0164 12.3255 48.1372 12.5533 48.1974 12.7999C48.2079 12.8314 48.2259 12.8599 48.2499 12.8829C48.2739 12.9059 48.3032 12.9226 48.3352 12.9316Z" fill="#263238"/>
<path d="M34.802 6.3504C34.802 6.3504 32.2151 3.78147 40.9938 4.01501C49.7724 4.24855 51.2335 9.17083 47.2095 10.3146L47.0298 9.51215C46.3387 9.86848 45.5794 10.0731 44.8029 10.1123C44.0263 10.1516 43.2503 10.0245 42.5267 9.7397L43.1615 9.34448C43.1615 9.34448 37.1673 9.95528 34.802 6.3504Z" fill="#263238"/>
<path d="M41.8085 28.6566C41.8085 28.6566 40.6887 29.95 39.4132 31.2255C37.5509 30.2854 33.1915 27.7644 33.425 25.435C33.6825 24.7583 35.455 24.3271 35.455 24.3271C35.455 24.3271 37.3353 26.8362 41.8085 28.6566Z" fill="#46B8B0"/>
<path d="M41.8081 28.6569C42.7242 29.3954 43.5307 30.2604 44.2034 31.2259C45.5747 30.3396 44.886 26.0042 44.383 25.5251C43.6578 25.129 42.844 24.9229 42.0177 24.9263C42.289 25.5182 42.4118 26.1675 42.3753 26.8176C42.3387 27.4677 42.144 28.0991 41.8081 28.6569Z" fill="#46B8B0"/>
<g opacity="0.5">
<path d="M41.8085 28.6566C41.8085 28.6566 40.6887 29.95 39.4132 31.2255C37.5509 30.2854 33.1915 27.7644 33.425 25.435C33.6825 24.7583 35.455 24.3271 35.455 24.3271C35.455 24.3271 37.3353 26.8362 41.8085 28.6566Z" fill="white"/>
<path d="M41.8086 28.6569C42.7247 29.3954 43.5312 30.2604 44.2039 31.2259C45.5752 30.3396 44.8865 26.0042 44.3835 25.5251C43.6583 25.129 42.8445 24.9229 42.0182 24.9263C42.2895 25.5182 42.4123 26.1675 42.3758 26.8176C42.3392 27.4677 42.1445 28.0991 41.8086 28.6569Z" fill="white"/>
</g>
<path opacity="0.2" d="M41.7482 96.9699L39.1973 83.0833L39.6883 75.7358C39.6883 75.7358 43.1794 88.4787 41.7482 96.9699Z" fill="black"/>
<path d="M28.5744 32.7828C26.3588 36.4775 22.9276 41.765 21.0473 45.5196C20.0473 47.6454 19.7359 49.9209 19.191 52.2144C18.67 54.6636 18.149 57.1606 17.5741 59.6278L14.7118 59.3762C14.61 56.7834 14.634 54.2144 14.7897 51.6216C14.9873 48.9209 15.131 46.0047 16.149 43.4417C18.173 38.5135 20.8377 34.1062 23.6941 29.6689L28.5744 32.7948V32.7828Z" fill="#EEC1BB"/>
<path d="M26.179 26.4399C22.9634 27.2723 17.1968 38.8295 17.1968 38.8295L24.0293 43.2547L30.1911 37.2665C30.5448 35.0988 30.4118 32.8794 29.8019 30.7694C28.8018 27.1645 26.179 26.4399 26.179 26.4399Z" fill="#46B8B0"/>
<path opacity="0.7" d="M26.179 26.4399C22.9634 27.2723 17.1968 38.8295 17.1968 38.8295L24.0293 43.2547L30.1911 37.2665C30.5448 35.0988 30.4118 32.8794 29.8019 30.7694C28.8018 27.1645 26.179 26.4399 26.179 26.4399Z" fill="white"/>
<path d="M28.603 62.0669L76.0705 11.7308C76.3262 11.4597 76.6329 11.2415 76.9729 11.0888C77.313 10.9361 77.6797 10.8519 78.0523 10.841C78.4249 10.8301 78.796 10.8926 79.1444 11.0251C79.4928 11.1576 79.8117 11.3574 80.0829 11.6131L81.2287 12.6936C81.7763 13.2101 82.0964 13.923 82.1185 14.6755C82.1406 15.4279 81.8628 16.1583 81.3463 16.706L33.8789 67.0421L28.603 62.0669Z" fill="#263238"/>
<path opacity="0.6" d="M28.603 62.0669L76.0705 11.7308C76.3262 11.4597 76.6329 11.2415 76.9729 11.0888C77.313 10.9361 77.6797 10.8519 78.0523 10.841C78.4249 10.8301 78.796 10.8926 79.1444 11.0251C79.4928 11.1576 79.8117 11.3574 80.0829 11.6131L81.2287 12.6936C81.7763 13.2101 82.0964 13.923 82.1185 14.6755C82.1406 15.4279 81.8628 16.1583 81.3463 16.706L33.8789 67.0421L28.603 62.0669Z" fill="white"/>
<path opacity="0.2" d="M80.4318 11.9497L81.2282 12.6982C81.4993 12.9533 81.7175 13.2593 81.8702 13.5987C82.023 13.9382 82.1073 14.3044 82.1185 14.6764C82.1296 15.0485 82.0673 15.4191 81.9351 15.7671C81.8029 16.115 81.6034 16.4335 81.348 16.7043L33.8798 67.0468L33.0894 66.2983L80.5576 15.9558C80.8126 15.6846 81.0116 15.3658 81.1433 15.0176C81.275 14.6695 81.3368 14.2987 81.3251 13.9267C81.3134 13.5546 81.2285 13.1885 81.0752 12.8493C80.922 12.5101 80.7033 12.2044 80.4318 11.9497Z" fill="black"/>
<path d="M65.2881 31.4405L74.0847 39.7401L75.2284 38.5245L74.0907 37.4526L75.8991 35.5304L75.2344 34.9017L77.9531 32.0214L78.6178 32.6501L80.3184 30.8477L81.4561 31.9256L82.6358 30.6681L81.9711 30.0393L83.6718 28.2309L82.3364 26.9733L83.4502 25.7937L85.4562 27.68L87.4922 25.5242L78.6956 17.2246L65.2881 31.4405Z" fill="#263238"/>
<path opacity="0.6" d="M65.2881 31.4405L74.0847 39.7401L75.2284 38.5245L74.0907 37.4526L75.8991 35.5304L75.2344 34.9017L77.9531 32.0214L78.6178 32.6501L80.3184 30.8477L81.4561 31.9256L82.6358 30.6681L81.9711 30.0393L83.6718 28.2309L82.3364 26.9733L83.4502 25.7937L85.4562 27.68L87.4922 25.5242L78.6956 17.2246L65.2881 31.4405Z" fill="white"/>
<g opacity="0.2">
<path opacity="0.6" d="M74.4356 37.785L73.2935 38.9961L74.0864 39.7438L75.2285 38.5327L74.4356 37.785Z" fill="black"/>
<path opacity="0.6" d="M78.6179 32.6506L77.9532 32.0158L75.2346 34.9021L75.8993 35.5309L74.0909 37.4531L73.2944 36.7046L75.1089 34.7824L74.4382 34.1536L77.1568 31.2673L77.8275 31.9021L79.5221 30.0996L80.3186 30.8481L78.6179 32.6506Z" fill="black"/>
<path opacity="0.6" d="M81.1745 29.2849L82.8811 27.4824L83.6776 28.2309L81.9709 30.0394L82.6416 30.6681L81.456 31.9256L80.6655 31.1771L81.8452 29.9196L81.1745 29.2849Z" fill="black"/>
<path opacity="0.6" d="M82.6509 25.043L81.5376 26.2236L82.3305 26.9713L83.4439 25.7907L82.6509 25.043Z" fill="black"/>
<path opacity="0.6" d="M86.6974 24.7801L84.6597 26.9409L85.4526 27.6886L87.4903 25.5278L86.6974 24.7801Z" fill="black"/>
</g>
<path d="M74.807 12.1433L60.2553 27.5743C60.0148 27.8294 60.0266 28.2311 60.2816 28.4716L65.5618 33.4509C65.8169 33.6914 66.2186 33.6796 66.4591 33.4246L81.0107 17.9935C81.2513 17.7385 81.2395 17.3368 80.9844 17.0963L75.7042 12.117C75.4492 11.8765 75.0475 11.8882 74.807 12.1433Z" fill="#263238"/>
<path d="M34.1554 83.3157C33.051 84.4872 31.7267 85.4296 30.2581 86.0892C28.7894 86.7488 27.2052 87.1127 25.596 87.1599C23.9867 87.2072 22.3839 86.937 20.879 86.3647C19.3742 85.7924 17.9969 84.9293 16.8257 83.8247L12.8495 80.0761C11.678 78.9717 10.7356 77.6474 10.076 76.1788C9.41637 74.7101 9.05255 73.1259 9.00528 71.5167C8.95802 69.9074 9.22824 68.3046 9.8005 66.7997C10.3728 65.2949 11.2359 63.9176 12.3405 62.7463C13.4459 61.5702 14.7725 60.6239 16.2444 59.9615C17.7162 59.2992 19.3044 58.9339 20.9177 58.8866C22.531 58.8393 24.1378 59.111 25.6459 59.686C27.1541 60.2609 28.5339 61.128 29.7062 62.2373L33.6764 65.9859C34.8458 67.0923 35.7859 68.4182 36.4428 69.8879C37.0998 71.3576 37.4609 72.9423 37.5054 74.5516C37.5498 76.1608 37.2769 77.7631 36.7021 79.2668C36.1273 80.7706 35.2619 82.1464 34.1554 83.3157Z" fill="#263238"/>
<path d="M29.5867 79.0043C29.0372 79.5881 28.378 80.0578 27.6468 80.3867C26.9157 80.7156 26.1269 80.8972 25.3255 80.9211C24.5242 80.9451 23.726 80.8108 22.9765 80.5261C22.2271 80.2414 21.5411 79.8118 20.9577 79.2618L17.1971 75.6689C16.6138 75.119 16.1445 74.4595 15.8161 73.7281C15.4877 72.9968 15.3067 72.2079 15.2834 71.4065C15.26 70.6052 15.3948 69.8071 15.68 69.0578C15.9652 68.3086 16.3953 67.6229 16.9456 67.0399C17.4946 66.4561 18.1534 65.9863 18.8843 65.6575C19.6152 65.3288 20.4038 65.1475 21.2049 65.1242C22.006 65.1008 22.8038 65.2358 23.5526 65.5214C24.3014 65.807 24.9865 66.2376 25.5686 66.7884L29.3651 70.3813C30.5373 71.4958 31.2191 73.0301 31.2607 74.647C31.3022 76.2639 30.7001 77.8311 29.5867 79.0043Z" fill="white"/>
<path opacity="0.5" d="M74.807 12.1433L60.2553 27.5743C60.0148 27.8294 60.0266 28.2311 60.2816 28.4716L65.5618 33.4509C65.8169 33.6914 66.2186 33.6796 66.4591 33.4246L81.0107 17.9935C81.2513 17.7385 81.2395 17.3368 80.9844 17.0963L75.7042 12.117C75.4492 11.8765 75.0475 11.8882 74.807 12.1433Z" fill="white"/>
<g opacity="0.5">
<path d="M34.1554 83.3162C33.051 84.4877 31.7267 85.4301 30.2581 86.0897C28.7894 86.7493 27.2052 87.1131 25.596 87.1604C23.9867 87.2077 22.3839 86.9375 20.879 86.3652C19.3742 85.7929 17.9969 84.9298 16.8257 83.8252L12.8495 80.0766C11.678 78.9722 10.7356 77.6479 10.076 76.1793C9.41637 74.7106 9.05255 73.1264 9.00528 71.5171C8.95802 69.9079 9.22824 68.305 9.8005 66.8002C10.3728 65.2954 11.2359 63.9181 12.3405 62.7468C13.4459 61.5707 14.7725 60.6243 16.2444 59.962C17.7162 59.2997 19.3044 58.9344 20.9177 58.8871C22.531 58.8398 24.1378 59.1115 25.6459 59.6864C27.1541 60.2614 28.5339 61.1285 29.7062 62.2378L33.6764 65.9864C34.8458 67.0928 35.7859 68.4187 36.4428 69.8884C37.0998 71.3581 37.4609 72.9428 37.5054 74.5521C37.5498 76.1613 37.2769 77.7636 36.7021 79.2673C36.1273 80.7711 35.2619 82.1469 34.1554 83.3162Z" fill="white"/>
<path d="M29.5867 79.0048C29.0372 79.5886 28.378 80.0583 27.6468 80.3872C26.9157 80.7161 26.1269 80.8977 25.3255 80.9216C24.5242 80.9455 23.726 80.8113 22.9765 80.5266C22.2271 80.2419 21.5411 79.8122 20.9577 79.2623L17.1971 75.6694C16.6138 75.1195 16.1445 74.46 15.8161 73.7286C15.4877 72.9973 15.3067 72.2084 15.2834 71.407C15.26 70.6057 15.3948 69.8076 15.68 69.0583C15.9652 68.3091 16.3953 67.6234 16.9456 67.0404C17.4946 66.4565 18.1534 65.9868 18.8843 65.658C19.6152 65.3293 20.4038 65.148 21.2049 65.1247C22.006 65.1013 22.8038 65.2363 23.5526 65.5219C24.3014 65.8074 24.9865 66.238 25.5686 66.7889L29.3651 70.3818C30.5373 71.4963 31.2191 73.0305 31.2607 74.6475C31.3022 76.2644 30.7001 77.8316 29.5867 79.0048Z" fill="white"/>
</g>
<path opacity="0.2" d="M79.3961 15.5962L80.989 17.0932C81.0489 17.1523 81.0965 17.2227 81.129 17.3003C81.1615 17.3779 81.1782 17.4612 81.1782 17.5453C81.1782 17.6295 81.1615 17.7128 81.129 17.7904C81.0965 17.868 81.0489 17.9384 80.989 17.9975L66.4377 33.423C66.3792 33.4827 66.3093 33.5302 66.2322 33.5626C66.1551 33.595 66.0723 33.6117 65.9886 33.6117C65.905 33.6117 65.8222 33.595 65.745 33.5626C65.6679 33.5302 65.598 33.4827 65.5395 33.423L63.9526 31.9259C64.0714 32.0433 64.2317 32.1091 64.3988 32.1091C64.5658 32.1091 64.7261 32.0433 64.8449 31.9259L79.3961 16.4944C79.4559 16.4359 79.5033 16.366 79.5357 16.2889C79.5681 16.2118 79.5848 16.129 79.5848 16.0453C79.5848 15.9617 79.5681 15.8789 79.5357 15.8017C79.5033 15.7246 79.4559 15.6547 79.3961 15.5962Z" fill="black"/>
<g opacity="0.2">
<path d="M24.3829 65.682L25.5806 66.8018C24.3906 65.7732 22.8497 65.2434 21.2788 65.3226C19.708 65.4017 18.2282 66.0839 17.1477 67.2269C16.0672 68.3699 15.4693 69.8856 15.4785 71.4585C15.4877 73.0313 16.1033 74.54 17.1971 75.6703L15.9995 74.5445C14.8219 73.4328 14.1341 71.8988 14.0875 70.28C14.0409 68.6612 14.6393 67.0902 15.751 65.9126C16.8627 64.7349 18.3967 64.0472 20.0155 64.0006C21.6343 63.954 23.2053 64.5524 24.3829 65.6641V65.682Z" fill="black"/>
<path d="M32.461 64.8916L33.6587 66.0174C35.9495 68.2663 37.2672 71.3237 37.3288 74.5333C37.3905 77.7429 36.1912 80.8487 33.9885 83.1839C31.7858 85.5192 28.7552 86.8976 25.5475 87.0233C22.3397 87.1489 19.2106 86.0119 16.8319 83.8561L15.6343 82.7363C18.0051 84.9428 21.1524 86.1219 24.3893 86.0162C27.6263 85.9106 30.69 84.5289 32.9119 82.1726C35.1338 79.8163 36.3334 76.6767 36.249 73.4391C36.1645 70.2015 34.8028 67.1288 32.461 64.8916Z" fill="black"/>
</g>
<g opacity="0.2">
<path d="M24.3829 65.682L25.5806 66.8018C24.3906 65.7732 22.8497 65.2434 21.2788 65.3226C19.708 65.4017 18.2282 66.0839 17.1477 67.2269C16.0672 68.3699 15.4693 69.8856 15.4785 71.4585C15.4877 73.0313 16.1033 74.54 17.1971 75.6703L15.9995 74.5445C14.8219 73.4328 14.1341 71.8988 14.0875 70.28C14.0409 68.6612 14.6393 67.0902 15.751 65.9126C16.8627 64.7349 18.3967 64.0472 20.0155 64.0006C21.6343 63.954 23.2053 64.5524 24.3829 65.6641V65.682Z" fill="black"/>
<path d="M24.3829 65.682L25.5806 66.8018C24.3906 65.7732 22.8497 65.2434 21.2788 65.3226C19.708 65.4017 18.2282 66.0839 17.1477 67.2269C16.0672 68.3699 15.4693 69.8856 15.4785 71.4585C15.4877 73.0313 16.1033 74.54 17.1971 75.6703L15.9995 74.5445C14.8219 73.4328 14.1341 71.8988 14.0875 70.28C14.0409 68.6612 14.6393 67.0902 15.751 65.9126C16.8627 64.7349 18.3967 64.0472 20.0155 64.0006C21.6343 63.954 23.2053 64.5524 24.3829 65.6641V65.682Z" fill="black"/>
</g>
<path d="M15.2686 66.2139L19.6699 65.1121L19.1789 61.8965L13.8135 62.9803L15.2686 66.2139Z" fill="#EEC1BB"/>
<path d="M14.8375 58.7709L13.8135 62.9626L19.2028 61.8788C19.2028 61.8788 19.2747 58.1122 17.2746 57.8667L14.8375 58.7709Z" fill="#EEC1BB"/>
</g>
<defs>
<clipPath id="clip0_10_856">
<rect width="96" height="96" rx="48" fill="white"/>
</clipPath>
</defs>
</svg>
